# xmcd
#
# Track frame offsets:
# 150
# 22054
# 41739
#
# Disc length: 975 seconds
#
#
# Revision: 1
# Processed by: cddbd v1.5.2PL0 Copyright (c) Steve Scherf et al.
# Submitted via: FreeRIP 2.30 
#
DISCID=2103cd03
DTITLE=Eric Clapton - 
DYEAR=1900
DGENRE=Blues
TTITLE0=I Ain't Gonna Stand For It
TTITLE1=Losing hand
TTITLE2=Johnny Guitar
EXTD=
EXTT0=
EXTT1=
EXTT2=
PLAYORDER=
